Coordinates
version=1
nRows=24
nColumns=22
inDegrees=yes

Units are S.I. units (second, meters, Newtons, ...)
If the header above contains a line with 'inDegrees', this indicates whether rotational values are in degrees (yes) or radians (no).

endheader
time	pelvis_tilt	pelvis_list	pelvis_rotation	pelvis_tx	pelvis_ty	pelvis_tz	hip_flexion_r	hip_adduction_r	hip_rotation_r	knee_angle_r	ankle_angle_r	subtalar_angle_r	hip_flexion_l	hip_adduction_l	hip_rotation_l	knee_angle_l	ankle_angle_l	subtalar_angle_l	lumbar_extension	lumbar_bending	lumbar_rotation
      4.03000000	     -1.82301625	      4.30224163	     -4.94883315	     -1.32900752	      1.06103359	     -0.30004805	     -1.18226584	     -2.43362951	     -1.61700093	    -18.34453191	     19.92703390	     -5.35129470	     22.31596216	      0.71148999	    -11.54561622	    -17.02616250	      9.27856044	     -1.53993013	     -9.92578215	     -7.97629992	     -0.14724814
      4.04000000	     -1.65325790	      3.83222737	     -4.94192357	     -1.33585594	      1.06221102	     -0.29892989	     -1.12529264	     -1.83778939	     -1.53108943	    -18.11796924	     19.50489864	     -5.54643286	     22.49671476	     -0.01085358	    -12.38461043	    -17.97206399	      9.31888057	     -1.74790576	    -10.21544122	     -7.47082664	     -0.47545350
      4.05000000	     -1.44096802	      3.39279955	     -4.92669453	     -1.34241200	      1.06352029	     -0.29785330	     -1.15218172	     -1.27949705	     -1.45512633	    -17.84750686	     19.05293171	     -5.64742452	     22.60496979	     -0.70362505	    -13.15432119	    -19.02701797	      9.36446346	     -1.94117961	    -10.52289624	     -7.01286198	     -0.79127844
      4.06000000	     -1.27691295	      2.98888631	     -4.89109285	     -1.34869969	      1.06478039	     -0.29682502	     -1.17266486	     -0.75561120	     -1.40910286	    -17.51993409	     18.60217526	     -5.88802526	     22.74516152	     -1.36167824	    -13.79994122	    -20.18965205	      9.40090301	     -2.28829975	    -10.74140989	     -6.60015751	     -1.08638042
      4.07000000	     -1.07537436	      2.62226812	     -4.87090321	     -1.35477508	      1.06612273	     -0.29579950	     -1.24745264	     -0.27991432	     -1.36234693	    -17.18501170	     18.13827096	     -5.99589516	     22.79899106	     -1.97312524	    -14.29939681	    -21.39733740	      9.45716621	     -2.53639247	    -10.98174674	     -6.24391537	     -1.35795090
      4.08000000	     -0.92921160	      2.29588871	     -4.82925716	     -1.36063024	      1.06735702	     -0.29482898	     -1.29634200	      0.15144009	     -1.37669760	    -16.81002312	     17.70358978	     -6.21845694	     22.88345324	     -2.52133479	    -14.59462792	    -22.65913700	      9.50734238	     -2.96001351	    -11.13108275	     -5.93615438	     -1.59828960
      4.09000000	     -0.75302736	      1.99819909	     -4.82048050	     -1.36632143	      1.06862304	     -0.29382940	     -1.38418199	      0.54020864	     -1.38303874	    -16.43709423	     17.27395793	     -6.27174741	     22.89127096	     -3.02416297	    -14.71815443	    -23.93879978	      9.57749848	     -3.18396908	    -11.29963118	     -5.67903319	     -1.76824598
      4.10000000	     -0.66607624	      1.72806402	     -4.77318533	     -1.37187195	      1.06968260	     -0.29297307	     -1.39332478	      0.89756727	     -1.43390420	    -16.05557729	     16.88727562	     -6.40788351	     22.97820677	     -3.44374166	    -14.55097041	    -25.24923361	      9.66964880	     -3.62818984	    -11.35506203	     -5.43309478	     -1.96750903
      4.11000000	     -0.53192858	      1.47441289	     -4.77655385	     -1.37728694	      1.07077184	     -0.29208552	     -1.45096163	      1.22115306	     -1.46316984	    -15.68923973	     16.52309197	     -6.41106669	     22.97333942	     -3.82198211	    -14.23247051	    -26.55638129	      9.78058389	     -3.84625212	    -11.45421648	     -5.22638367	     -2.06247910
      4.12000000	     -0.50653046	      1.24705438	     -4.73278406	     -1.38260052	      1.07160316	     -0.29137077	     -1.38053336	      1.51208910	     -1.58400188	    -15.36370571	     16.22033015	     -6.38913785	     23.07823378	     -4.10365285	    -13.63080418	    -27.87585093	      9.90095686	     -4.21211931	    -11.42357513	     -5.02644550	     -2.19127645
      4.13000000	     -0.45573578	      1.02389773	     -4.73261838	     -1.38782608	      1.07240715	     -0.29069748	     -1.32009741	      1.78315931	     -1.67933336	    -15.08137823	     15.96843200	     -6.27837055	     23.12335185	     -4.33949504	    -12.87817940	    -29.17787477	     10.03392190	     -4.45302921	    -11.42154230	     -4.83352047	     -2.23786788
      4.14000000	     -0.37216602	      0.81125078	     -4.76088340	     -1.39290078	      1.07319030	     -0.29007505	     -1.30193715	      2.03251734	     -1.73870722	    -14.80439771	     15.78503177	     -6.14307589	     23.09553604	     -4.52193326	    -12.01696855	    -30.44913036	     10.20635801	     -4.59926315	    -11.44816517	     -4.65293807	     -2.24768523
      4.15000000	     -0.40000462	      0.62451104	     -4.76459202	     -1.39790666	      1.07372784	     -0.28963442	     -1.11512305	      2.24420994	     -1.90762186	    -14.63018082	     15.66030213	     -5.79291157	     23.16813054	     -4.61115819	    -10.96821085	    -31.68664812	     10.33516819	     -4.74853211	    -11.34457889	     -4.47807754	     -2.24356147
      4.16000000	     -0.34066105	      0.43031168	     -4.80228431	     -1.40272389	      1.07433785	     -0.28924122	     -1.03526277	      2.44975396	     -2.04152694	    -14.44907037	     15.56215176	     -5.50177848	     23.09406791	     -4.67495456	     -9.90132360	    -32.86446446	     10.50354781	     -4.80506856	    -11.33263416	     -4.29707374	     -2.19367060
      4.17000000	     -0.33846416	      0.26958012	     -4.83925237	     -1.40740747	      1.07479299	     -0.28896319	     -0.87593296	      2.61560209	     -2.16615288	    -14.31548746	     15.57087653	     -4.99305089	     23.04218422	     -4.66573821	     -8.78429252	    -33.98013409	     10.63836787	     -4.79417095	    -11.24413095	     -4.13836723	     -2.15100216
      4.18000000	     -0.29425010	      0.10581830	     -4.88452854	     -1.41188967	      1.07526065	     -0.28875759	     -0.76671068	      2.77464822	     -2.29290040	    -14.18764592	     15.58205707	     -4.51771944	     22.89036651	     -4.63545221	     -7.68558529	    -35.01790921	     10.77424122	     -4.74548414	    -11.19347262	     -3.97335550	     -2.08704404
      4.19000000	     -0.24378182	     -0.05536607	     -4.92884995	     -1.41617820	      1.07568451	     -0.28865128	     -0.66698009	      2.92479324	     -2.40746410	    -14.07002782	     15.61871428	     -4.00385346	     22.68227374	     -4.58544969	     -6.62445801	    -35.97851531	     10.90464799	     -4.66191623	    -11.13843137	     -3.79846109	     -2.02419356
      4.20000000	     -0.18621259	     -0.21630066	     -4.97228172	     -1.42025927	      1.07607849	     -0.28859063	     -0.58323734	      3.07331648	     -2.50368570	    -13.95168107	     15.66127646	     -3.49183546	     22.41248105	     -4.53146146	     -5.62542236	    -36.85139260	     11.03052298	     -4.55806454	    -11.07798209	     -3.62339947	     -1.95772555
      4.21000000	     -0.12374927	     -0.37800984	     -5.01763457	     -1.42415460	      1.07643827	     -0.28857380	     -0.50375660	      3.22217392	     -2.57097744	    -13.85017589	     15.71701713	     -2.96450879	     22.08734514	     -4.48484066	     -4.71143203	    -37.63796249	     11.17017186	     -4.43419170	    -11.01253715	     -3.44324941	     -1.89976972
      4.22000000	     -0.04924439	     -0.55642252	     -5.05696737	     -1.42785836	      1.07678151	     -0.28860473	     -0.44124227	      3.38971770	     -2.62876529	    -13.75776676	     15.73960905	     -2.56501103	     21.70258861	     -4.46493765	     -3.88284211	    -38.34011672	     11.33986686	     -4.34034187	    -10.95138251	     -3.23966277	     -1.85309179
      4.23000000	      0.00704858	     -0.70047688	     -5.09661372	     -1.43135718	      1.07708468	     -0.28866015	     -0.36858693	      3.52352359	     -2.63967566	    -13.66257576	     15.80443820	     -2.01670233	     21.28674610	     -4.42625910	     -3.15150220	    -38.94095845	     11.49769599	     -4.17851586	    -10.85056295	     -3.07577802	     -1.82275708
      4.24000000	      0.07184056	     -0.85929441	     -5.12874349	     -1.43468043	      1.07737601	     -0.28874834	     -0.30748460	      3.67520372	     -2.65441116	    -13.57913445	     15.82549862	     -1.65129681	     20.82255848	     -4.42005479	     -2.50651800	    -39.45842395	     11.69144013	     -4.07075259	    -10.75190345	     -2.89357748	     -1.80561729
      4.25000000	      0.13226612	     -1.00743585	     -5.15624303	     -1.43783908	      1.07764409	     -0.28886132	     -0.24204198	      3.81825339	     -2.65686191	    -13.51081259	     15.84337979	     -1.31613307	     20.32687659	     -4.42115722	     -1.94648334	    -39.88869954	     11.90310586	     -3.96203927	    -10.63980900	     -2.72217268	     -1.81497585
      4.26000000	      0.18505128	     -1.15311278	     -5.18189171	     -1.44086198	      1.07788104	     -0.28899937	     -0.16099613	      3.96101428	     -2.65881046	    -13.46875759	     15.84709683	     -1.08972091	     19.80937214	     -4.44099437	     -1.46859127	    -40.23971775	     12.13390693	     -3.89007426	    -10.51520490	     -2.55195865	     -1.85374967
